<mxfile host="app.diagrams.net" agent="Mozilla/5.0 (Windows NT 10.0; Win64; x64) AppleWebKit/537.36 (KHTML, like Gecko) Chrome/134.0.0.0 Safari/537.36" version="26.1.1">
  <diagram name="PÃ¡gina-1" id="-PqLd-Lrva1havA_Mk1D">
    <mxGraphModel dx="880" dy="460" grid="1" gridSize="10" guides="1" tooltips="1" connect="1" arrows="1" fold="1" page="1" pageScale="1" pageWidth="827" pageHeight="1169" math="0" shadow="0">
      <root>
        <mxCell id="0" />
        <mxCell id="1" parent="0" />
        <mxCell id="ltkl38_gyYZNN8CDvdL8-3" value="" style="edgeStyle=orthogonalEdgeStyle;rounded=0;orthogonalLoop=1;jettySize=auto;html=1;" edge="1" parent="1" source="ltkl38_gyYZNN8CDvdL8-1" target="ltkl38_gyYZNN8CDvdL8-2">
          <mxGeometry relative="1" as="geometry" />
        </mxCell>
        <mxCell id="ltkl38_gyYZNN8CDvdL8-1" value="inicio" style="ellipse;whiteSpace=wrap;html=1;fillColor=#60a917;fontColor=#ffffff;strokeColor=#2D7600;" vertex="1" parent="1">
          <mxGeometry x="340" y="20" width="120" height="80" as="geometry" />
        </mxCell>
        <mxCell id="ltkl38_gyYZNN8CDvdL8-5" value="" style="edgeStyle=orthogonalEdgeStyle;rounded=0;orthogonalLoop=1;jettySize=auto;html=1;" edge="1" parent="1" source="ltkl38_gyYZNN8CDvdL8-2" target="ltkl38_gyYZNN8CDvdL8-4">
          <mxGeometry relative="1" as="geometry" />
        </mxCell>
        <mxCell id="ltkl38_gyYZNN8CDvdL8-2" value="valor,qtde" style="shape=parallelogram;perimeter=parallelogramPerimeter;whiteSpace=wrap;html=1;fixedSize=1;fillColor=#60a917;strokeColor=#2D7600;fontColor=#ffffff;" vertex="1" parent="1">
          <mxGeometry x="340" y="130" width="120" height="60" as="geometry" />
        </mxCell>
        <mxCell id="ltkl38_gyYZNN8CDvdL8-7" value="" style="edgeStyle=orthogonalEdgeStyle;rounded=0;orthogonalLoop=1;jettySize=auto;html=1;" edge="1" parent="1" source="ltkl38_gyYZNN8CDvdL8-4" target="ltkl38_gyYZNN8CDvdL8-6">
          <mxGeometry relative="1" as="geometry" />
        </mxCell>
        <mxCell id="ltkl38_gyYZNN8CDvdL8-4" value="venda = valor*qtde&lt;div&gt;comissao = venda*5/100&lt;/div&gt;" style="whiteSpace=wrap;html=1;fillColor=#60a917;strokeColor=#2D7600;fontColor=#ffffff;" vertex="1" parent="1">
          <mxGeometry x="315" y="230" width="170" height="60" as="geometry" />
        </mxCell>
        <mxCell id="ltkl38_gyYZNN8CDvdL8-9" value="" style="edgeStyle=orthogonalEdgeStyle;rounded=0;orthogonalLoop=1;jettySize=auto;html=1;" edge="1" parent="1" source="ltkl38_gyYZNN8CDvdL8-6" target="ltkl38_gyYZNN8CDvdL8-8">
          <mxGeometry relative="1" as="geometry" />
        </mxCell>
        <mxCell id="ltkl38_gyYZNN8CDvdL8-6" value="comissao" style="shape=document;whiteSpace=wrap;html=1;boundedLbl=1;fillColor=#60a917;strokeColor=#2D7600;fontColor=#ffffff;" vertex="1" parent="1">
          <mxGeometry x="340" y="320" width="120" height="80" as="geometry" />
        </mxCell>
        <mxCell id="ltkl38_gyYZNN8CDvdL8-8" value="fim" style="ellipse;whiteSpace=wrap;html=1;fillColor=#60a917;strokeColor=#2D7600;fontColor=#ffffff;" vertex="1" parent="1">
          <mxGeometry x="360" y="440" width="80" height="80" as="geometry" />
        </mxCell>
      </root>
    </mxGraphModel>
  </diagram>
</mxfile>
